<?xml version="1.0" encoding="UTF-8"?>
<svg id="Layer_1" xmlns="http://www.w3.org/2000/svg" version="1.1" viewBox="0 0 300 266">
  <!-- Generator: Adobe Illustrator 29.0.0, SVG Export Plug-In . SVG Version: 2.1.0 Build 186)  -->
  <defs>
    <style>
      .st0 {
        fill: #e8000d;
      }

      .st1, .st2 {
        isolation: isolate;
      }

      .st3, .st2 {
        fill: #fff;
      }

      .st4 {
        fill: #0051ba;
      }

      .st5 {
        fill: #ffc82d;
      }

      .st2 {
        font-family: AndaleMono, 'Andale Mono';
        font-size: 72px;
      }
    </style>
  </defs>
  <g>
    <path class="st3" d="M175.5,174.2c3-2.2,6.1-4.2,9.1-6.1-2.3,4.3-2.9,8.2-3.2,10.4h0c-1.3.7-2.9,1.7-5,3.6s-3.5,4-4.3,5.4c-2,.4-3.7,1-4.9,2.3-.7.8-.9,1.7-1.3,3.2-.3,1.4-.8,3.3-1.5,4.9-.2.5-.4.9-.6,1.4-1-1.1-2.1-2.3-3.2-3.4-1.8-1.6-4-3.2-5.8-4.5,4.6-4.1,13.8-12,20.9-17.2M174.7,2.6c-8,.4-13.3,5.5-15.8,8.5-9.4-3-19.3-2.9-28.1.3-14,5.1-18.4,13.3-20.1,16.8-1.8.3-4.7,1.1-7.4,3.5-1.1,1-2.7,3.2-5.4,7-2.6,3.6-5.8,8.1-7.6,9.7-5.2,4.9-7.5,5.7-10.5,5.5-1.9,0-3.5,1.1-3.9,3v.7c0,3.3,4.1,8.3,7.5,9.5,1.5.6,2.9.9,4.2,1.1-.3.9-.5,1.8-.7,2.6-.2,1.2-.9,3.7-1.6,5.9-1,3.7-1.6,5.8-1.6,7.2s.4,1.8,1.2,2.6c.8.7,1.7,1,2.5,1-.2.9-.5,1.9-.8,3-.5,1.6-1.6,3.8-2.5,5.6-.9,1.8-1.8,3.5-1.8,5s.4,2,1.5,2.8c.5.3,1.4,1,4,.9,0,0-.3.4-.3.4-1.2,1.8-2,3.2-2,4.6s0,1,.3,1.5c.4.9,1,1.4,1.9,1.9-1,.8-1.8,1.7-2.4,2.8-.4.9-.6,1.8-.6,2.7s.2,1.7.5,2.5c.4.9.9,1.7,1.5,2.3-.5.2-1.1.5-1.5.7-2.5-8.8-5.8-13.2-9.6-13.2s-1.7,0-2.6.5c-.3-.8-.5-1.5-.7-2.2l-1.6-4.5c-5.3-14.2-10.1-13.8-11.7-13.7-4.9.3-6.2,5.2-6.5,9.9-.9-.9-2-1.5-3.5-1.4-.8,0-1.4.3-2,.6-.8-1.8-1.8-3.6-2.7-4.9l-.6-.8c-2.8-4.1-6.7-9.7-11.9-7.5-4.3,1.8-5.4,5.8-5.4,10.3s.4,5.6.8,8.3c.2,1.5.5,3.2.8,4.8-.3,0-.7-.3-1-.3-1.7-.2-3.2.3-4.4,1.5-1.7,1.8-2.3,3.7-2.3,5.6s.9,4.6,1.6,6.3c0,0,.4.9.4,1h-.2c-3.3-3.1-8.1-6.5-12.3-4.2-1.5.8-2.5,2.1-3,3.8-.2.7-.3,1.4-.3,2.2,0,5.2,3.8,11.8,4.7,13.2.4.7,1.3,2.2,2.1,3.7-1,.4-2.1,1.1-2.7,2.6-.3.6-.4,1.2-.4,1.9,0,1.7.9,3.4,2,4.9-1.3.3-2.4,1-3.2,2.3-2.2-.7-8-2.1-9.7,1.9-.2.5-.3.9-.3,1.4,0,3.5,4.6,7.2,6.7,8.7-.3.5-.4,1.1-.4,1.7v.8c.5,2.6,3.2,4.5,9.1,7.9l.6.4c0,.1,0,.2-.1.3v.9c0,3.8,4.9,6.3,6.6,7.1,0,0,.3.1.7.3-1.2,1.8-1.9,3.7-2.1,5.8v.7c0,4.8,3.9,8.4,7.9,8.8h.6c.1.5.2,1.1.5,1.9,0,0,.4,1.1,1.1,2.3-1.2.2-2.6.4-4.4.9-3.9.9-9.4,2.9-12.4,4l-1.5.5c-5.4,1.9-5.7,4.1-5.9,4.9v.6c0,1.1.5,2.2,1.4,2.9.3.2.6.4.8.5-4.9,2.9-6.9,7.8-6.9,11.3s0,.8,0,1.1c.2,1.6.6,2.9.8,3.8-.3,1-.5,2.2-.5,3.6,0,2.7.8,5.9,3.2,8.9,4.9,6.2,14.8,8.8,22.6,8.6,5.9-.1,9.2-1.1,10.8-1.5,9.1,3,19.2,3.9,30.1,2.7,11.6-1.3,22.3-5.4,27-7.4,1.6,1.3,3.8,2.5,6.6,2.6,6.8.3,10.9-6.4,14-13,1.2-2.6,2.1-4.6,2.8-6.2.4.4.8.7,1.2,1l.8.6c2,1.5,4.3,3.2,7.5,2.7,1.3-.2,2.2-.8,3-1.6.8.5,1.6,1.1,2.8,1.8l.5.3c1.6,1,3.2,2,4.8,2.7-.3.4-.6.7-.9,1.2-3.6,5.4-4.8,10.3-4.8,14s.6,4.8,1.3,6.1c1.4,2.5,3.4,2.7,4.2,2.7s3.5-.3,3.7-3.9c.1-2.1,2.9-5.2,5.3-7.4,1.6-1.5,3-2.4,4.1-3.1.7,1.4,1.7,2.9,2.8,4.2,1.5,1.7,3.9,3,5.7,3.9,0,0,.6.3.9.5.1.2.3.3.3.3,1.4,1.8,4.3,5.6,10.6,5.7,6.3,0,14.1-6.2,17.7-10.6,4.3-5.4,6.6-10.5,7.6-13,2.5-1.4,7.8-4.8,15.3-13,12.3-13.4,17.7-29.1,18.8-32.1,2-6.2,2.9-11.1,2.9-15.2s-.5-5.1-1.4-7c-1.9-4-4.7-5.7-7-6.3-2.1-3.2-7.4-9.9-16.1-11.7-2.3-.5-4.5-.7-6.5-.8,3.4-1.9,5.9-3.3,7.4-4.4,1.4-1,12.9-9.5,12.9-19s-.2-2.2-.5-3.4c-1.8-5.9-6.9-8.4-11.1-9.5.1-.6.2-1.1.2-1.8s0-1-.2-1.6c-.3-1.6-1-2.8-1.9-3.8,7.6-.4,16.6-1.3,25.1-3.3,12-2.8,19-5.3,24.6-7.2,2.6-.9,4.8-1.7,7.1-2.4,5.5-1.6,9.8-2.7,12.1-3.3,2.3-.6,2.5-.6,3.1-1,1.1-.8,1.8-2.1,1.8-3.4s0-.2,0-.2c0-1.4-.9-2.7-2.2-3.3l-.6-.3c-7.4-3.2-14.1-7-18.4-9.6-4.6-2.8-9-6.1-12.2-8.8,3.9-.9,8.6-1.9,11.5-2.1,11-.7,18.1,1.4,20.6,2.3,3.5,1.3,5.7,3.4,5.7,3.4l4,3.8,1.9-5.2c.3-.8,6.8-20-11.8-39.9-18.1-19.4-45.4-22.3-64-16.8-2.6-2.3-8-6.7-12.5-8-6.7-1.9-10.9-.9-13.4.4-3.6-2.3-11.2-6.3-18.5-5.9"/>
    <path class="st4" d="M175.5,6.6c-9.3.4-14.4,8.8-14.4,8.8,0,0-.5.2-1.2,0-3.5-1.3-14.5-4.8-27.3-.2-16.1,5.9-18.1,16-19.2,16.6-.4.2-4,0-7.2,2.9-2,1.8-9.4,13.3-13,16.8-5.3,5-8.6,6.8-13.2,6.5-.9,0,2.1,5.2,5,6.3,4.8,1.8,8.3.9,8.3.9,0,0-1.9,3.8-2.5,6.9s-3.5,12-3.1,12.4c.4.3,2.4-.9,3-1.1s1.8-.6,1.8-.6c0,0-.3,4.2-2,9.5-1.2,3.7-4.5,9-4,9.3.5.4,2.8,0,4.2,0,1.3-.2,3.4-.8,3.4-.8,0,0-.8,3.2-1.6,4.7-.8,1.5-3,4.5-2.8,5,0,.3,2.4.9,6.2.4,3.4-.5,6.1-2,6.1-2,0,0-.7,1.4-1.1,2.2-.3.8-.5,2.7-1,3-.4.3-4.9.6-6.6,1.1-2.2.6-5.3,2.5-4.2,5.1,1.2,2.8,3.4,2.4,8.7,3.1,5.2.7,6.5,1.3,6.5,1.3h0s-2.3,2-1.2,3.8c1.1,1.8,4.9,1.9,6.7,1.9s2.4-.3,2.6,0c.2.4-.6.7-1,1.5s0,2.7,3.5,3.4c6.1,1.1,11.5,1.2,12.5,1.2s1.5.3,1.5.4c0,.4-.2.1-4,.4-3.2.3-8.9.3-11.6-.2-3.6-.7-4.2-2-4.2-2.9s.2-2.1,0-2.2c0-.1-5.9,1.3-7.8-1.5-2.3-3.4.3-5.8.4-5.9-2,0-4.7.2-7.7.8-4.4.9-10.7,4.4-10.7,4.4,0,0-3.4-14.8-7.2-14.8s-3.1,4.4-3.5,4.3c-.7,0-3.5-9.1-4.9-12.8-1.4-3.7-4.8-11.6-8-11.4s-3.4,6-3.1,11.7c.2,5.7,0,11.7,0,11.7s-1.7-2.8-3.1-7.5c-1.2-4-2.4-7.6-3.7-7.5-2.3.2-2.2,5.9-2.4,5.8-.2,0-3-8-5.5-11.6s-5.4-8.2-8.2-7c-4.1,1.7-3.4,8-2.4,14.8,1,7.2,3.7,17.4,3.7,17.4,0,0-6.4-11.2-9.4-8.2-2.6,2.6-.6,6.3.5,9.1,1.1,3,2.9,5.8,2.7,5.9-.7.6-2.9-2.2-4.4-1.5-1.6.7-.8,2.8-1.1,2.8s-7.5-8.9-11.4-6.8,1.7,12.4,2.8,14.2,4.6,8.2,4.7,8.4c0,.2-1.4.3-2.5.3s-2.1-.2-2.5.7c-.3.7,0,2.3,3,5.3,3,3.1,4.9,4.6,4.7,4.9-.5.6-8.6-2.8-9.5-.7-.6,1.4,1.3,3,1.3,3,0,0-3-.6-5.2-1.3-2.5-.8-5.2-.9-5.5-.2-.3.8,3.4,4.7,6,6.4,5.7,3.7,6.8,3.2,6.9,3.4.1.2-6.9-.7-6.6.7.3,1.7,6.5,5,8.5,6.1,2,1.2,6.3,3.1,6.2,3.2-.1.2-1.2,0-2.4,0s-2.6,0-2.8.7c-.2.7.8,2.2,4.6,4.1,3.4,1.8,5,2.2,4.9,2.4,0,.2-4,2.7-4.4,7.2-.3,3.2,2.6,5.5,4.6,5.7,2.1.2,3.6-.2,3.6-.2,0,2.9,0,2.7.6,4.6.6,1.8,2,3.2,2.1,3.2s-.3.9-.6,1.7c-.3.7-.6,2-.6,2,0,0-1.1-.6-6.8.8-4.4,1.1-11.3,3.7-13.4,4.4-2.2.8-3.8,1.9-3.4,2.2s1.4,0,3.1.4c1.6.3,5.8,1.5,7.8,1.7s3.7.4,3.7.4v2.2s-.9.5-1.7,1.1c-.8.6-1.4,1.5-1.4,1.5,0,0-5.2-3.8-10.2-1.4-5.1,2.5-6.3,7.5-6,9.3.4,2.9,1.1,4.3,1.1,4.3,0,0-2.5,5.1,1.7,10.3,3.9,5,12.7,7.4,19.7,7.2,7.4-.2,10.4-1.7,11-1.7s11.4,4.9,29.5,2.8c14.8-1.6,28.3-8.2,28.3-8.2,0,0,1.9,3.2,5.8,3.4,3.2.1,6.3-1.9,10.6-10.9s5-11.8,5-11.8c0,0,2.2,3.5,4.4,5.2s3.6,2.9,5.5,2.6c1.9-.3,2.2-3.4,2.5-3.4s1.4,1.5,5.7,4.1c3.3,2,7,4.3,8.7,3.5.6-.3-1.2-4.1-1.2-4.1l.9.4c0-.1.4.8,1.6,1.8,1.2.9,2.7,1.2,2.7,1.3s-3.9,1.4-7.2,6.3c-6.6,9.9-3.8,17.3-2.4,17.2.9,0-1.6-2.6,6.7-10.3,4.7-4.4,8.4-5,8.4-5,0,0,1.7,4,3.8,6.4,1.4,1.7,4.9,3,6,3.7s2.8,5.3,8.7,5.3,11.7-5.3,14.9-9.3c5.6-6.9,7.5-13.3,7.5-13.3,0,0,5.7-2.1,15.6-12.8,10.3-11.2,16-24.5,18-30.7,3.1-9.6,3.5-15.8,1.7-19.4-2.4-5-5.9-4.5-5.9-4.5,0,0-4.9-9.5-14.6-11.5-8.8-1.8-16.2-.6-21.1,7.3-4.1,6.7-3.1,12.2-4.1,12.6-1.1.4-2.8,1.1-5.5,3.5s-4.2,5.6-4.4,5.9c-.2.2-3.6.6-4.4,1.5-.4.5-.9,4.1-2.3,7.3-2.8,6.3-3.4,6.3-3.4,6.3,0,0-3-4.2-6.2-7.2-3.3-3-8.7-6.3-8.9-6.6s-.1-.2,0-.5c.2-.3,14.2-13,24.2-20.2,15.2-11,31.3-18.5,35.6-21.5,4.4-3.1,13.2-11.5,11.1-18.4-1.8-5.9-8.5-7.4-11.8-7.7,0,0-1,.9-1.9,1.4-.5.3-1.5.6-1.4.8,0,.2,1.2,0,4.3.8s5.2,3.3,3.8,6.2c-1.8,3.6-7.6,6.4-11.7,7.3-7,1.6-12.4,1.3-12.4,1.5s1,.6,1.6,2.4c.6,2-1.6,4.4-3.9,5.1-1.6.5-7.5-.2-7.5.5s3,4-2.4,6.5c-3.6,1.6-12.7,2.6-18.1,2.2-5.9-.4-7.2-.2-7.2-.7s4.3-.6,17.4-2c8.5-.9,9.1-2.8,8.9-4s-2.1-2.7-2.2-3c-.1-.2-.1-.7.8-.6.9,0,5.6,0,8.7-1,2.7-.8,3.6-2.2,3.5-3.1,0-.9-2.5-2.7-2.9-2.9s-.7-.9.4-.9c2.6,0,11.6-1.8,16.9-3.2,5.3-1.3,8.5-4.3,8.7-6.1.1-1.2-2.1-2.8-5.6-3.2-3.5-.5-4.8-.5-4.9-1,0-.2,1.5-1.1,2.4-1.5s2.9-1.5,2.9-1.6h0s3.1-2.1,2.5-5.5c-.5-2.7-2.9-4.3-12.9-4.7-7.5-.3-11.9,0-11.9-.2,0,0,.3-.9.5-1.8.2-.8.3-1.8.3-1.8,0,0,26.5,2.6,50-2.8,17.2-4,23.8-7.3,31.5-9.6,8.4-2.5,14-3.8,14.2-3.9.2-.2.4-.6,0-.8-.4-.2-8.4-3.4-19.2-10-9.4-5.8-18.1-13.6-18.1-13.6,0,0,12.9-3.5,18.9-3.9,10.8-.7,18.4,1.2,22.1,2.6,4.3,1.6,7,4.2,7,4.2,0,0,6.3-17.7-11-36.2-16.9-18.1-43.5-21.5-62.4-15.3,0,0-7.4-7.1-12.5-8.5-9.5-2.6-12.4,1.3-12.4,1.3,0,0-9.7-7.1-18.4-6.7l-.2-.2.2.3ZM207.1,123.6h1.8-1.8ZM101.8,124.5h2.4-2.4ZM163.4,40.3c4.4,0,9.3,4.2,9.3,4.2,0,0-5.5-2.6-8.6,0-2.8,2.3-1.1,5.9-1.1,5.9,0,0,1.9.6,3.7,1.1s3.9,1.3,3.9,1.3c0,0-1.3.4-2.9.7-2,.3-2.8.6-2.8.6,0,0,4.6,6.6,10.3,6.8,3.7,0,5.8-3.6,5.8-3.6,0,0,.8,3.4-3,5.2-3.3,1.5-9.7-1.1-14.4-5.7-4.8-4.7-8-12.6-3.1-15.6.9-.5,1.9-.7,2.9-.7h0v-.2ZM82,144.7h13.3c1.3,0,1.9.4,1.9,1.3s0,1.3-1.6,1.3-.7,0-1.3.1c-.7.1-1.1.4-1.2,2.1v11.2c.8-.8,1.8-1.8,2.9-3,2.7-2.8,5.7-5.9,6.6-6.9l.2-.3c1-1.2,2.1-2.5,2.1-3s0-.2,0-.2h0c-.4,0-1.3-.3-1.3-1.3s.2-1.3,1.7-1.3h2.4l2.9.2h9.8l6.3-.2c.5,0,2,0,2,1.3s-.1,1.3-1.7,1.3-.7,0-1.3.1c-.7.1-1.1.4-1.2,2.1,0,1.6,0,3,0,10.7v7.1c0,7.4,1.5,10.1,3.7,11.9,2,1.7,4.1,1.9,5.8,1.9s4.2-.2,6.4-2.5c2.5-2.5,2.7-6.7,2.7-12v-17.1c0-1.5-.3-1.9-1.6-2.1-.3,0-1-.1-1.6-.1-1.5,0-1.7-.9-1.7-1.3,0-.9.6-1.3,1.9-1.3s2.9,0,5.7.1h1.5c1.3,0,3.1-.1,4.4-.1s1.9.4,1.9,1.3-.2,1.3-1.8,1.3-.7,0-1.3.1c-.7.1-1.1.4-1.2,2.1-.1,1.6-.1,3-.1,10.7v5.4c0,6-.6,12.1-5.1,16-4,3.4-8,3.9-11.1,3.9s-7.7,0-11.9-3.7c-3.3-3-4.8-7.4-4.8-14.1v-7.4c0-7.7,0-9.1,0-10.7,0-1.9-.7-2.1-1.3-2.1-1.3,0-3.7,2-5.9,4-1.5,1.4-8,7.9-10.4,10.4,2.6,2.8,14.1,15.2,14.1,15.2l5.9,6.4c2,1.9,4.3,3.9,6.7,4.9,1.7.7,2.7.9,3.1.9,1,0,1.5.6,1.5,1.2,0,1.3-1.5,1.4-2.1,1.4h-4.4c-1.6,0-2.5,0-3.6-.1-3-.3-4.5-1.5-6.8-3.5h0s-18.2-20.1-19.4-21.4v2.6c0,4.7,0,8.7.2,10.9,0,1.8.8,1.9,1.1,2,.7,0,1.8.2,2.4.2,1,0,1.5.6,1.5,1.2s0,1.4-1.8,1.4h-13.9c-1.7,0-1.9-.9-1.9-1.4s0-1.2,1.7-1.2,1.1,0,1.7-.2c.4,0,.6-.6.8-2.1.3-2.1.3-6.1.3-10.8v-9c0-7.8,0-9.2,0-10.8,0-1.5-.4-1.9-1.6-2.1-.3,0-1.1-.1-1.8-.1-1.5,0-1.7-.9-1.7-1.3s0-1.3,2-1.3h0l-.5-.2ZM52.8,156.6c.5,0,1.1,1.8,1.6,2.9.5,1.2,3,3.8,5,5.8s4.8,4.6,4.9,4.5c0,0,.2-2.8.2-4.7s.2-6.6.5-6.5c.3,0,5.1,9.4,6.7,12.3,1.5,2.8,4.3,7,3.4,7.6-.3.2-1.3-1.2-2-2.2-.6-1.1-2.8-4.5-3.8-6-1.4-2.1-2.9-5.1-3.1-4.9s-.2,2.5-.2,3.4,0,3.4,0,3.9-.8.6-1.1.3c-.3-.3-1.5-1.4-2.3-2.1-.8-.6-2.4-1.9-4-3.3-1.6-1.4-5-5.5-5.1-5.4,0,0,0,2.4.2,3.7,0,1.3-.6,2.7-.9,2.7s-3.7-1.7-5.7-2.8-4.9-3-5.1-2.8c-.2.1,1.6,2.5,3.3,5.8,1.2,2.4,1.4,4,.9,4.4s-2.5-.6-4.2-1.1-3-1-3-.9c0,.2,1.7,2,2.6,3.2,1.3,1.6,2,2.7,2,3.2s-.4.7-.8.9-1.2.3-2.6.3-3.4.1-3.3.3c0,.2,2.1,2.2,4.3,3.9,3.5,2.7,4.5,3.7,4.9,3.9.3.2,1,.3.9,1,0,.3-.6.5-.9.6-.3,0-1.3.7-2.4,1.3s-3.2,1.6-3,1.8,6.8,1.8,9.4,2.1c2,.2,4,.1,4.1.7,0,.5-1.1.9-2,1.4s-3.1,1.2-2.9,1.4c.2.3,5.4,2.2,12.6,2.4,8.1.2,9-1.1,9.7-.8.5.2.6.6,0,.9-2.7,1.4-7.8,2.2-13.4,1.7-5.4-.5-11.8-3.6-11.8-4s.9-.6,1.4-.9c.5-.3,2-1,1.2-1.1-.8,0-3.6-.3-7.1-1.5-2.7-.9-6.4-2.1-6.4-2.3,0-.3.9,0,5.3-2,2-.9,3.6-1.8,3.5-1.9,0-.1-2.7-1.4-5.8-4.5-2.2-2.2-5.1-5.5-4.9-5.7.2-.2,1.8,0,3.3,0s3.2-.1,3.5-.2c.3,0,.6-.4.6-.7s-.4-.7-1.8-2.7c-1.3-2-4.1-5.1-4-5.3.2-.2,2.5.7,4.7,1.4,2.2.8,3.9,1.6,4.3,1.4s-.8-2.7-2.1-5.5c-1.1-2.4-4.3-6.6-4-6.6s4.5,2.7,7.7,4.2c2.6,1.2,5.7,2.7,6,2.5s0-1.1,0-3.9,0-5,.8-5.2h0l.2-.3ZM76.4,181c.3,0,1.3,1.3,1.3,1.8s-1.6,5-1.9,6.8c-.4,1.7-1.3,8.7-1.3,8.7-.5-.2-1.8-2.8-1.4-5.3s1.8-7.3,2.2-8.7c.4-1.4.9-3.2,1.2-3.2h0ZM147.8,193.9s.1,0,.2.1c.1,1.1-4.7,8.3-6,10.5s-5,10.6-5.8,12.8c-.7,2.2.2,3.1-1.2,3.4-1.4.3-2.7-2.3-3.7-4.2-1-2-.9-7.9-.9-7.9,0,0-3,5.4-4.1,7.2-1.1,1.9-5.2,9.6-6.2,8.8-.9-.7,4.5-10.3,5.8-12.8s5.9-11.5,7-11.1c1.2.4-.3,5.7,0,11.2.2,3.5,1.8,5.8,1.9,5.5,0-.3.9-5.3,4.7-12.5,3.1-6,7.6-10.6,8.4-10.7h0v-.3ZM176.9,199.5c.9,0,2,0,3.4.3,2.7.4,4.9,1.2,5.1,1.5,0,0-.5,1.3-.9,2.4-.4,1.1-1.1,2.4-1.3,2.5-.2,0-1.5,0-5.2-1s-4.6-.5-4.6-.7.4-1.8.8-2.8c.4-1,.9-1.8,1.2-2,.2,0,.7-.2,1.6-.2h-.1ZM73.3,200.5s.8.7.7,2.9c-.2,2.2-.6,4.2-.6,5.1s.3,2.7.3,2.9-.3.4-1.3.5-1.6.3-1.6.3c0,0,.9-3,1.1-4,.2-.9-.5-2.6-.2-4.7.2-1.6,1.6-3,1.6-3h0ZM51.2,206.4s.5.4.5.8.4,2.1.5,2.9c.2.8.7,2,.7,2,0,0-1.4.7-2.6,1.2-1.2.4-2.2.9-2.4.8-.2,0-.6-1.6-.4-2.1.2-.5.2-1.7.2-2s.7-1,1.7-1.8,1.7-1.7,1.7-1.7h0ZM59.9,217h0c.2,0,.8.8,1.3,1.4.5.6,1.3,1.9,1.2,2-.2.2-.9.5-1.6.8-.7.2-2.1.8-2.2.8-.2,0-1.3-1.3-1.7-1.7-.3-.5-1.3-1.5-1.2-1.6s1.7-.7,2.3-.9c.5-.2,1.6-.7,1.8-.7h.1Z"/>
    <path class="st0" d="M176.8,9.3c-1.1,0-2.4.1-3.7.3-6.5,1.2-10.3,7.7-10.3,7.7,0,0,4.1,2.6,6.7,3.9,2.4,1.3,3.4,1.7,5.3,1.9,1.9.2,3.7.2,3.8.7s-.9,1.6-2.2,1.6c-3.6,0-2.7.4-14.8-5.9-10.7-5.5-19.7-3.9-19.8-3.9-1.2.2-12.7,1.4-20.2,8.5-4,3.8-5.5,8.2-5.4,8.9.2,1.4.9,1.7,1.3,2.9.4,1.1.4,3.1-.2,3-.8,0-2-4.1-5.1-4.1s-4.1,0-8.7,7.3c-3,4.8-7.1,9.6-8.8,11.3-1.6,1.7-6.2,5.4-7.6,6-2.8,1-3.3.4-3.5.7s1.3,2.6,5.4,2.9c5.3.4,9.6-3,9.8-2.8,0,0-3.6,6.3-4.6,9-1.1,3-1.5,5-2.1,6.8-.6,1.7-.9,3.5-1.2,4-.2.3,4.5-1,7.6-3.4,3.7-2.7,5.3-5.2,5.3-5.2,0,0-.2,3.9-3.4,6.3-3,2.3-5,3-5.8,4.1,0,.2-.2,4.3-1.3,7.9-1.9,6.3-3.9,9.2-3.9,9.2,0,0,3.2,0,7.6-2.9,4.3-2.8,6.1-4.8,6.1-4.8,0,0,.4,2.4-2.7,5.1-2.6,2.2-3.7,2.6-4,3,0,.2-.7,3.2-1.3,4.8-.8,2.4-2.3,4.2-2.1,4.5.2.3,4.3-.5,9-3.7,3.2-2.2,6.7-4.4,6.7-4.4,0,0-2.3,3.1-4,6.7-2,4.4-3.1,6.9-2.8,9.8,0,.2,2.9-1.4,5.5-2.3,2-.7,4.4-1.3,7.1-4.4,2-2.2,4.2-4.8,4.2-4.8,0,0-1.2,3-1.7,5.8s-.5,6.9-.2,7.3c.2.2,6.8-3.8,8.8-6.2,3.2-3.7,6-8.8,6-8.8,0,0,.2.3.2.6s-.6,6.8-.4,9.1c.2,2.8.4,3.6.6,7.3,0,1,0,1.7.2,1.8.2,0,.6-.4,1.5-.8s7.1-2.7,10.5-5.7c6-5.3,7.3-8.7,7.3-8.7,0,0-1.3,6.7-1.4,9.1-.2,4,.3,10.4.8,10.7.5.3,2.5-1.6,5.1-3.1,1.3-.7,3.7-2,7.7-7.5,2.5-3.4,4.4-5.9,4.7-5.9s-1.6,5.2-1.7,6.9c0,1.9.9,5,1.4,6.3.4,1.1.5,1.6.8,3.1,0,0,4.5-4.4,7.2-7.3,6.2-6.6,5.8-10.3,5.8-10.3-9.2-1-18-4-23.4-6-14.2-5.2-22.2-11.7-30.5-19.4-4.8-4.5-6.4-9.1-5.3-11.4.6-1.4,2-1.9,2-1.9,0,0-6.9-8.1-5.9-15.4.6-4.3,6.7-6,18.1-3.8,14.6,2.8,29.4,11.1,29.4,11.1,0,0-5.6-3.9-7.8-7s-3.3-5.5-3.3-5.5c0,0-3.8.6-7.8-.4s-7.8-1.8-10.6-6.8c-.9-1.5.3-1,1.5.6,0,0,1,.9,2.2,1,1.6,0,6.4-.7,13.6-6.9,7.4-6.5,13.8-11.4,18.2-9.7,4.4,1.7,6,5.9,3.4,9.3s-3.2,4.8-3.2,4.8c0,0,1,.6,2.4,2.1s3,2.9,3,2.9c0,0,5.1-6.4,17.7-14.5,12.7-8.2,18.9-10.4,18.9-10.4,0,0-2.1-3.5-7.6-6.1-3.8-1.8-6.7-2.1-8.4-2-1.3.1-2.8.8-2.8,1.6s.8,1,1.9,1.6c1.4.7,2.4.9,2.6,1.3.2.4.5,1.2.2,1.3-1.6.2-3.3-.5-4.2-.9-2.2-1.2-7.3-4.8-10.9-6.9-2.8-1.6-5.6-2.6-9-2.6h.5ZM228.8,73.9c-.2,0-.4,0-.7,0-3.3,1.1-9.6,3.3-13.1,4.6-3.6,1.3-12.7,5.4-14.5,6-1.8.7-2.4,1.1-3,1.1-1.6,0-2.9.5-2.1,1,.1,0,10,0,16.5,0,7.9-.2,18.8-.2,19.6-.3,1.1,0,2.8-.8,6.5-2.7,3.8-1.9,4.6-2,5.2-2.2,1-.3.4-.5.4-.5h0c-.2,0-3.6-1.3-6.6-2.8s-7.1-4-7.1-4c0,0-.4-.3-1.1-.3h0ZM177.6,193.3c-3.1.1-4.9.8-5.2.9-.5.3-2,4.4-2.5,6.1-.6,1.7-3.2,7.3-3.3,7.6s-.1.9-.1,1.1.1.4.2.5c0,.1.3.5.4.7.1.2.2.5.4.5s6,.2,10.3,1.1c5.5,1.2,9.3,3.4,9.7,3.3.8-.2,1.1-4.2,3.4-8.9,1.4-2.7,3.6-6.8,3.8-7.2.2-.3.2-.5.2-.5-.5-.9-5.2-3.7-10.4-4.7-2.7-.5-5-.7-6.9-.6h0ZM178.6,197.4c.8,0,1.6,0,2.2.2,2.8.5,7.2,2.4,7.4,2.7,0,0,0,.2-.1.4s-1.2,2.6-2,4.4c-.9,2.2-1.7,4.7-1.9,4.7s-3.2-1.5-7.1-2.6c-4.5-1.2-6.9-.1-7.2-.6-.1-.2,1.2-3.2,1.6-4.5.4-1.3,1.5-4.3,1.8-4.5.2,0,2.8-.4,5.2-.3h.1ZM61.4,211.9c-.4-.1-.9.9-1.9,1.9-.7.7-2.9,1.4-3.5,1.3-1.1-.1-1.7-.5-1.7-.5,0,0-1.1.5-3.4,1.8-2.2,1.4-3.6,2.6-3.5,3.1.3,1.8.6,1.2,3.3,4.3,2.7,3,4.3,5.7,4.5,5.7s4.4-2.2,8-3.4c4.9-1.6,9.6-2.1,10-2.4.2-.1-2.1-3.6-4.1-5.6s-2.7-2.3-3-2.4c-.9-.3-1.5,0-2-.3-1-.6-2.5-2.3-2.5-2.7s0-.8-.2-.8h0ZM60.4,215.1c.2,0,1.7,1.5,2.7,2.6,1,1.1,2.9,3.8,2.8,3.8,0,0-2.9,1.1-4,1.5s-3.9,1.6-4,1.5c-.2,0-1.8-1.8-2.8-3-1.1-1.3-2.8-3.2-2.7-3.3,0-.2,3.1-1.6,4.2-2,1.1-.5,3.6-1.2,3.8-1.2h0Z"/>
    <path class="st5" d="M239.3,19.9h-2.8c-5.1.2-10.4,1.1-16,2.9-20.6,6.8-36.8,21-40,26.6-.5,1,6,7.2,1.2,12.9-3.9,4.6-11.6,1.6-11.6,1.6,6.7,4.2,10.4,8.2,10.8,9,.3.5.5,1.3.5,1.3-6.2-4.3-11.8-7.9-17.8-10.8-2.3-1.1-31.7-14.4-40-9.3-4.7,2.9,2.5,13.4,4.1,15.4,2.4,2.9,8.4,8,13.6,10.7,3.7,2,3.8,1.8,3.9,2.7,0,.4-1.2.8-2.7.5-1.3-.3-6.6-3.3-8.6-4.9s-5.9-4.6-5.9-4.6c0,0-1.3-.5-1.8.3-1.6,2.4,11.4,17.6,29.9,25,20.1,8.1,36,10,64.9,7.3,15.2-1.4,30.6-7.4,38.4-10,5.4-1.8,9.9-3.1,9.9-3.4s-9.3-2-19.2-2.9c-16.8-1.5-25.8-.8-39-1-18.6-.4-29.3,1.4-47.7-1.9-5.8-1-12.2-3.6-16.5-7-6.5-5.2-13.8-14.1-11.3-15.6,2.5-1.4,5.5,1.9,6.7,3.1,5.1,5.1,4.7,8.4,4.7,8.4,0,0,6.4,9.3,32.7,10.1,14.4.4,22.1-6.4,34.4-10.4,18.2-6,19.6-8.2,41.9-12.5,22.9-4.3,33.6,3.9,33.6,3.9,0,0,4.2-17.6-15.3-33.6-9.2-7.6-21.3-13.4-35.2-13.7h.2ZM171.3,29.5c-.9-.1-4.5.5-11.7,6.5-7.2,6.1-9.3,7.8-11.3,8.6s-4,1.2-3.8,1.4,3.6,1.1,5.2,1.3c3.5.4,5.5-.2,5.5-.2,0,0-.2-5.4,2.5-7.7,4.7-4,13,.5,13,.5,0,0,3.1-3.4,3.8-5.1.9-2,.5-3.1.5-3.1-.7-1.8-2.9-2.2-3.8-2.3h.1ZM214.6,30.6c1.9-.1,3,.7,3.5,1.4.5.8,2,3-3.1,6.2-5,3.2-7.4.8-7.9.3s-1.8-3.7,3.2-6.4c1.8-1,3.2-1.4,4.4-1.5h0ZM213.9,33.1c-.8,0-1.7.3-2.5.9-1.5,1.1-3.1,2.3-2.2,3.3.9,1,3.2,0,4.2-.5s3-2.1,2.3-3.1c-.3-.5-1-.7-1.8-.6h0ZM240.3,69.9s-1.9.6-3.3.9c-1.4.4-4.3,1-4.2,1.2,0,.2,6,4.2,8.1,5,2,.8,5.7,2.3,7,2.6,1.3.3,3,.6,3,.9s-2.4,1.3-5.5,2.6c-3.2,1.3-6.3,3.1-6.3,3.3s10.2,1.2,15,1.7c4.9.6,11.1,1.3,12.7,1.6,1.6.2,3.2.7,3.2.5s-.6-.5-2.3-1.2c-1.7-.7-8-4.6-11.5-7s-9.3-7.1-11.6-8.8c-2.3-1.7-4.3-3.3-4.3-3.3h0ZM205,163c-4.8-.2-9.2,1.4-11.5,3.6-6.3,6.1-6,14.5-6,14.5,0,0,2.4-.2,4.3,1.2,1.1.8,1.6,2.3,1.3,2.4-.7.3-2.6-1.6-6.7-1-5.1.9-8.8,6.3-8.6,6.8.3.5,3.8-.1,9.9,1.4,5.3,1.4,10.1,4.7,10.6,5.9.2.4-1.8,1.9-5.2,8.7-2.2,4.5-3.2,9.1-3.5,11.9,0,.8-5.9-3.8-12.9-4.7-7.4-1-10-.7-11.3-.3-.8.3-2-.3-2.2-.5-.3-.3-.3-1-.3-1,0-.2-2.3-.2-2.4-.2-.3.5,3.7,4.2,4.7,6.8,2.4,6.2,2.9,11.2,2.2,11.4s-5.8-1.9-8-3c-6.3-3.1-7.2-4.7-7.7-4.5-.4.1.3,3.6,1.2,5.5,1,2.4,3.5,5.1,2.5,5.7-1,.6-3.1.4-6.8-1.3-3.1-1.5-6.1-2.6-6.1-2.6,0,0-.2,2.4.2,3.6.5,1.6,1.2,3,1.2,3l.6.4c.4.2,1.5,1,1.5,1,0,0-1.3-1.2-1.6-1.9-.4-1,0-1.3.3-1.1,2.4,1.5,3.8,2.2,6.4,2.3,3.4.1,5-1.2,5.5-3.1.7-2.9-1.4-5.7-2.3-6.4-.9-.7-1.4-.8-1.8-1.4-.4-.6-.6-1.6,0-1.6s3.7,1.9,5.1,4.4c1.6,2.9,1.5,6.4,0,8-1.9,2.1-3.8,2.5-3.8,2.5,0,0,.8.6,1.6,1.5,1.1,1.1,1,1.7,1.2,2.3.1.4,2.2-.7,3.5-1.5s2.4-3.2,3.4-2.5c.8.7,0,2.8-1.8,4.1-1.9,1.3-4.3,2.4-4.4,3.2,0,1.8,1.6,4.9,3.4,6.4,2.9,2.3,6.3,3,7.5,2.8,2.5-.4,10.6-3.3,17.2-12.8,3.4-5,3.3-7.9,3.3-7.9,0,0-1.7-.8-1.9-1.4-.2-.5,8-2.6,15.7-12,4.3-5.2,5.9-8.6,8.2-16.8,1.1-3.8.5-7.9,1.4-7.9s.9,1.8,1,3c0,1.2-.4,3.3.2,2.8,2.4-2,7.2-6.9,8.6-14.2,1.8-9.4,2-17.2-8.2-23.1-2.8-1.7-5.9-2.4-8.8-2.5h.1ZM225.6,176c-.8.5,1.2,4.8-.9,12.7-3.2,12.4-10.7,16.9-11.4,18.1-.6.9-4.4,10.9-8.3,15.8-3.8,4.8-7.4,7.8-13.7,11.6-1.1.7-.1,1.5-.2,2.1,0,.6-1.5,7.7-7.8,13.6-9.6,8.9-14.5,8.4-15.2,9-.3.3,2,2,4.3,1.7,2.2-.2,9.3-3.6,15.2-11.8,4.6-6.6,5.5-11.6,5.6-11.9.2-.8.4-1.1,1.2-.6.3.2.7,1.3,1,1.1,3.2-1.2,12-8.7,20.1-20.3,5.8-8.4,11.1-22.1,12.3-27.7,1.7-7.8,0-12.8-1.8-13.4h-.5,0ZM40.8,203.6c0,0-.8,1.6-1.5,2-.8.5-.8.1-1.6.9-.7.8-3.1,4.2-.2,6.7,1.6,1.4,4.6.9,5.7.5,1.2-.4,2.1-2,1.6-2.9-.4-.9-1.4-.5-2-1.4-.7-.9-.8-2-1.2-3-.4-.9-.7-1.2-.7-1.6,0-.8,0-1.2,0-1.2h0ZM31.2,212.3c-1.2.1-3.2.3-6.9,1.3s-9.1,2.6-9.1,3,7.7,1,10.3,1,7.5-1.7,8-3.1c.5-1.5-1.1-2.3-2.3-2.2h0ZM76.1,214.4s-1.5,0-3,.2-3.4.5-3.4.5c0,0,2.3,2.4,3.8,4.4s3.4,5,3.2,5.6c0,.4-2.1-.4-11.5,2.4-7.4,2.2-11.1,4.8-11.3,4.8-.3,0-.5-1.5-1.5-3.1-1-1.5-2-3-2.2-3s-.3,3.6-1.5,6c-1.3,2.5-2.6,4.3-3.3,3.7-1-.8,1.1-3.7,2-6.4.7-1.9.5-5.8.5-5.8,0,0-.9-1-1.1-1s-1.4,3.2-2.7,4.5c-1.3,1.2-3.1,3.1-3.8,2.1s2.5-2.8,3.5-5.1,1.8-3.8,1.8-6.2,0-2.3,0-2.4c-.3,0-2.2.9-4.9.9s-3.7-1.1-4.1-1.2c-.3,0-.7,1.8-4.1,3.1-2.7,1-4.7.9-5.1,1.4s-.4,3.2.5,5.8c.6,1.8,2.7,5,1.5,5.4-1.3.4-1.6-.5-2.9-3.7-.9-2.1-.9-2.7-1.1-2.8-.1-.1-.7-.2-.9,0-.3.1-1.6,1.8-1.8,2s.9,1.7,1.4,2.4c.4.7,1.4,2.5,1,3.2s-.7.8-1,.5-1.6-4.5-5.8-6.9c-4.7-2.7-10.2.4-10.7,5-.6,5.2,4.6,10.8,14.2,14,10.4,3.4,16.6-.8,16.6-.8,0,0,9.7,5.3,28.2,3.4,18.9-1.9,25.4-6.7,27.4-8.2s2.3-2.4,2-2.4-3,1.6-5.2-.4c-3.9-3.7-1.6-11.7-2-11.9s-1.4.3-2.5,0c-1.9-.4-2.6-2.2-2.9-2.2-.7,0-1.2,3.2-4.2,3-2.4-.2-3.5-2.5-3.3-6.4,0-3.3.5-4.6.5-4.6h0l-.2.2ZM169.2,225c.7,0,1.5.5,2.4,1.6,1.9,2.4.5,8-1,7.9-1.4,0-.1-2.5,0-3.1,0-.2.3-1.2-.4-2.9-.6-1.7-2.5-1.9-2.2-2.8.1-.4.6-.7,1.3-.7h-.1ZM8.2,239.9c-.3-.2-2.2,7.6,12.8,11.5,4.1,1.1,11.9.3,15-.6,2.6-.8,3-1.3,3.2-1.4.4,0,.9,0,.9.2v.7s7.7,3.5,18.9,3.3,23.1-2.4,31.9-6.6,4.7-2.5,4.8-2.8c.2-.3.4-1.3.3-1.8,0-.4,0-1.3,0-1.3h0s-3,2.2-15.3,6.1c-6.4,2-14.1,3.3-26.3,2.6-11-.6-14.4-3.2-15.3-3.3-.8-.2-5.7,3.9-18,.6-9.8-2.7-11.7-6.7-13.1-7.3h.3ZM151.9,241.5c-1.4,0-3.9.7-7,4.2-4.1,4.7-5.5,10.7-5.2,11.1s.7-3,6.8-7.6c6-4.6,7.3-3.6,8-4.9.3-.6-.4-2.2-1.6-2.6-.2,0-.5-.1-1-.1h0Z"/>
  </g>
  <rect class="st4" x="77.6" y="141.6" width="77.2" height="12.7"/>
  <rect class="st4" x="80.1" y="150.3" width="70.7" height="32.6"/>
  <rect class="st4" x="80.1" y="165.6" width="63.6" height="30.7"/>
  <g class="st1">
    <text class="st2" transform="translate(82.1 196.2)"><tspan x="0" y="0">λ</tspan></text>
  </g>
</svg>